PathFileType	4	(X/Y/Z)	./resultDataOpenSim/trcMotMarkerGrf/sub09/qtm-04-02.trc
DataRate	CameraRate	NumFrames	NumMarkers	Units	OrigDataRate	OrigDataStartFrame	OrigNumFrames
250.000000	250.000000	13	24	m	250.000000	370	493
Frame#	Time	L.Toe.Tip			R.Toe.Tip			L.Ankle.Lat			R.Ankle.Lat			L.Ankle.Med			R.Ankle.Med			L.Heel			R.Heel			L.Knee.Lat			R.Knee.Lat			L.Knee.Med			R.Knee.Med			L.Thigh.Upper			R.Thigh.Upper			L.ASIS			R.ASIS			V.Sacral			L.Acromium			R.Acromium			C7			L.Elbow			R.Elbow			L.Wrist.Lat			R.Wrist.Lat
		X1	Y1	Z1	X2	Y2	Z2	X3	Y3	Z3	X4	Y4	Z4	X5	Y5	Z5	X6	Y6	Z6	X7	Y7	Z7	X8	Y8	Z8	X9	Y9	Z9	X10	Y10	Z10	X11	Y11	Z11	X12	Y12	Z12	X13	Y13	Z13	X14	Y14	Z14	X15	Y15	Z15	X16	Y16	Z16	X17	Y17	Z17	X18	Y18	Z18	X19	Y19	Z19	X20	Y20	Z20	X21	Y21	Z21	X22	Y22	Z22	X23	Y23	Z23	X24	Y24	Z24

370	1.476	0.90437481	0.1398308	-0.011511625	1.0756344	0.039471586	0.10051513	0.83294248	0.27504609	-0.04163308	0.92871678	0.059789579	0.13284003	0.86273593	0.26469928	0.052125405	0.94158055	0.099997414	0.042252668	0.75781264	0.2987036	0.0085489584	0.85895378	0.044202204	0.08267917	1.1550332	0.51842356	-0.077058383	1.0434715	0.50167503	0.20084946	1.1685113	0.51057028	0.050432212	1.0244065	0.49390735	0.074744241	0.98449798	0.89349158	-0.10439713	0.98568712	0.90672067	0.26683772	1.0591407	0.98019837	-0.047368877	1.0754727	0.98866412	0.19004935	0.89983032	1.0457902	0.075873029	1.0813644	1.4349801	-0.096755733	1.0609331	1.4460261	0.23377521	1.0018509	1.4922746	0.064038206	0.95695027	1.0822366	-0.13313955	0.91690429	1.0987166	0.31169911	1.1118225	0.86886961	-0.16468202	1.1220546	0.90877677	0.30513647
371	1.48	0.92163887	0.13707254	-0.011289538	1.0756811	0.039412695	0.10054377	0.84687529	0.27019224	-0.04144985	0.92890471	0.060216644	0.13277428	0.8776523	0.26060031	0.052079433	0.94246195	0.10028553	0.042315246	0.77097204	0.29201969	0.0088133466	0.85928115	0.044741677	0.082690947	1.1639081	0.52056931	-0.07707138	1.0447729	0.50182816	0.20080073	1.1779864	0.51302043	0.050274939	1.0260686	0.49420876	0.074943704	0.9899937	0.89437602	-0.10463217	0.99142649	0.90733242	0.26652667	1.0647357	0.98121494	-0.047304722	1.0807355	0.98926191	0.19020193	0.90481974	1.0464118	0.07600203	1.0858945	1.4357617	-0.096935332	1.0660379	1.4468557	0.23374427	1.006623	1.4930199	0.064064098	0.96075748	1.0833499	-0.1329802	0.92263661	1.0991222	0.31214808	1.1138904	0.86897387	-0.1653874	1.1295241	0.91103947	0.30442641
372	1.484	0.93906654	0.13427631	-0.010954994	1.0757261	0.039358893	0.10057964	0.86089324	0.26515551	-0.041226887	0.92905684	0.060664041	0.13271396	0.89228222	0.25639746	0.052209785	0.94400558	0.10027618	0.042373852	0.78435113	0.28519682	0.0090914425	0.85957764	0.045396409	0.082693403	1.1726645	0.52255874	-0.077089056	1.0461111	0.50197005	0.20081273	1.1872183	0.51536671	0.050093027	1.0278556	0.49451016	0.075254482	0.99562887	0.89522312	-0.10479514	0.99690477	0.9078935	0.26623273	1.0703266	0.98216845	-0.047223798	1.0859984	0.98983986	0.19036797	0.91003758	1.0470856	0.076266349	1.0904184	1.4364775	-0.097082134	1.0711257	1.4476453	0.23371298	1.0113967	1.493717	0.064093852	0.96458724	1.0844259	-0.13282519	0.92838819	1.0994741	0.31258072	1.1160031	0.86906022	-0.16607449	1.1369617	0.91324056	0.30372992
373	1.488	0.95671373	0.13146019	-0.010537579	1.075829	0.039349326	0.10060359	0.8749961	0.25996551	-0.040964725	0.92911367	0.061151386	0.13266363	0.9066926	0.25206531	0.052452767	0.94584524	0.10000703	0.042396352	0.79797425	0.27822048	0.0093465689	0.85981702	0.046169712	0.082646521	1.1813035	0.52438705	-0.077096657	1.0474572	0.50209569	0.2009247	1.1961826	0.51760321	0.049886484	1.0297639	0.4947619	0.075618797	1.0014974	0.89603453	-0.10484636	1.0020671	0.90840953	0.26600933	1.0759268	0.98305653	-0.047133342	1.0912638	0.99039789	0.19054808	0.91522175	1.047683	0.07650633	1.0949426	1.4371363	-0.097198942	1.0762038	1.4483971	0.23369692	1.0161843	1.4943686	0.064144891	0.96844642	1.0854659	-0.1326712	0.93415776	1.0997703	0.31298781	1.1181456	0.8691273	-0.16674805	1.1443685	0.91537961	0.30304208
374	1.492	0.97454166	0.12862824	-0.010122698	1.0760363	0.039382776	0.10059159	0.88918516	0.25465606	-0.040666199	0.92905103	0.06168488	0.13262741	0.92109371	0.2475928	0.052726866	0.94689736	0.099884498	0.042387544	0.8118387	0.27107373	0.0095461367	0.85999853	0.046971575	0.082536323	1.189812	0.52608365	-0.077102486	1.0489062	0.50224683	0.20114144	1.2048501	0.51972342	0.049657032	1.0317565	0.49493425	0.075941841	1.0075271	0.8967933	-0.10483062	1.0070077	0.90889395	0.26592632	1.0815526	0.9838795	-0.047037557	1.0965251	0.99092815	0.19074128	0.92026501	1.0481426	0.076626376	1.0994736	1.437745	-0.097299328	1.0812899	1.4491137	0.2337193	1.02099	1.4949814	0.06421632	0.97232907	1.0864601	-0.13253594	0.9399476	1.1000139	0.31336846	1.1203035	0.86917269	-0.16742375	1.1517507	0.91745811	0.30236241
375	1.496	0.99244031	0.12580026	-0.009800755	1.0762945	0.039404779	0.10053932	0.90349578	0.24923632	-0.040356661	0.9289569	0.062241765	0.13261638	0.93562167	0.24298558	0.052976636	0.94644487	0.10036928	0.042367391	0.82592018	0.26374266	0.0096617365	0.86009193	0.047688619	0.082361339	1.198183	0.52767471	-0.077110998	1.0505745	0.50244857	0.20142334	1.2132005	0.52172061	0.049409942	1.0337768	0.49504979	0.076196104	1.0135567	0.8974833	-0.10483124	1.0118428	0.90935621	0.26605205	1.0872089	0.98463752	-0.046935492	1.1017725	0.99142262	0.19094456	0.92538229	1.0484853	0.076607827	1.1040179	1.4383056	-0.097395295	1.0863965	1.4497982	0.23378125	1.0258113	1.4955657	0.064298002	0.97622307	1.0873905	-0.13244589	0.9457551	1.1002055	0.31372024	1.1224828	0.8691943	-0.16810764	1.1591116	0.91947704	0.30169349
376	1.5	1.0103656	0.12299533	-0.0095893762	1.0764343	0.039364189	0.10048889	0.91797333	0.24369247	-0.040068175	0.9289986	0.062761593	0.13262703	0.95029953	0.23825762	0.053170405	0.94511271	0.10144531	0.042358265	0.84020906	0.25620996	0.0096800473	0.86006611	0.048304613	0.082126873	1.2064123	0.52917037	-0.07711038	1.052375	0.5026707	0.20169526	1.2212561	0.52359	0.049153139	1.035761	0.49515634	0.076414761	1.0195069	0.89810725	-0.1048867	1.0166391	0.90979212	0.26637294	1.0928734	0.98533162	-0.046821725	1.1070058	0.99187687	0.19115222	0.93101596	1.0487388	0.0764056	1.1085798	1.438818	-0.097488627	1.0915279	1.4504551	0.23382989	1.0306407	1.4961171	0.064382064	0.98011941	1.0882476	-0.13242672	0.95157574	1.1003432	0.31403858	1.1246975	0.86919031	-0.16879846	1.1664411	0.92143132	0.30103818
377	1.504	1.0283653	0.12018681	-0.0094321652	1.076356	0.039280425	0.10049628	0.93263919	0.23800764	-0.039813426	0.92924619	0.06319125	0.13262971	0.96511689	0.23343042	0.053286249	0.94406035	0.1026376	0.042393592	0.85469439	0.24846393	0.0096515448	0.85996209	0.048927294	0.081870971	1.2144732	0.53058935	-0.077102603	1.0540708	0.50285427	0.20190329	1.2291001	0.52533118	0.048892566	1.0376711	0.49527956	0.07662731	1.0254129	0.89867901	-0.10498407	1.0214049	0.91018948	0.26674949	1.0985237	0.98596485	-0.046693565	1.1122317	0.99228906	0.19135802	0.93747077	1.0488995	0.075974546	1.1131567	1.4392811	-0.097576195	1.0967054	1.451098	0.23377063	1.0354718	1.4966109	0.064461901	0.98401913	1.0890397	-0.13248309	0.95741597	1.1004306	0.31432514	1.1269469	0.86915874	-0.16949979	1.1737288	0.92331462	0.30040211
378	1.508	1.0464762	0.1173299	-0.009278072	1.0762052	0.039234818	0.10056933	0.94749345	0.23217773	-0.039582911	0.92958763	0.063552479	0.13260984	0.98010011	0.22853637	0.053324551	0.94372302	0.10350852	0.042450839	0.86934506	0.24050998	0.0096712691	0.85988088	0.04965454	0.081674642	1.2223228	0.53195085	-0.077119956	1.0555512	0.50295737	0.20205371	1.2368326	0.52694721	0.048629332	1.0395132	0.49541563	0.076845692	1.0313254	0.89920885	-0.10510478	1.0261019	0.91054503	0.26702791	1.1041673	0.98654041	-0.046548308	1.117457	0.99266164	0.19156111	0.94443875	1.0489772	0.075404856	1.1177406	1.4396936	-0.097661648	1.1019586	1.4517387	0.23354865	1.0403025	1.4970282	0.064531766	0.98793703	1.0897836	-0.13257112	0.9632979	1.1004799	0.31459429	1.1292233	0.86910063	-0.17020824	1.1809877	0.92513159	0.29979647
379	1.512	1.0646918	0.11443117	-0.0091253364	1.0762032	0.039290107	0.10067621	0.96253081	0.2262203	-0.039358424	0.92987397	0.063927884	0.13259144	0.99532748	0.22361367	0.053327891	0.9438759	0.10397503	0.042467814	0.88415149	0.23236917	0.0097800662	0.85989234	0.050460488	0.081589616	1.2299613	0.5332256	-0.077188844	1.056897	0.50298309	0.20216904	1.2445148	0.52844018	0.048362231	1.0412952	0.49555727	0.07706533	1.0372474	0.89970011	-0.10524227	1.0306851	0.91086854	0.26718374	1.10983	0.98706136	-0.046379372	1.1226841	0.99299926	0.19176586	0.95116579	1.0490302	0.074890439	1.122328	1.4400549	-0.097755192	1.1072469	1.4523562	0.23322977	1.0451307	1.4973759	0.064589716	0.99188703	1.0904863	-0.13263487	0.96925435	1.1005073	0.3148753	1.1315288	0.86901974	-0.17090557	1.188251	0.92689609	0.29923415
380	1.516	1.0830033	0.11154625	-0.0089966617	1.0763738	0.039425624	0.10078176	0.97774158	0.22016925	-0.03912765	0.93007415	0.064369528	0.13259961	1.0108482	0.21868101	0.053366931	0.94427424	0.10423186	0.04245544	0.89914214	0.22407709	0.009950961	0.8599909	0.051253996	0.081588447	1.2374429	0.53434745	-0.077292911	1.0582427	0.50297201	0.20226832	1.2521541	0.5298061	0.048096522	1.0429799	0.49571299	0.077259956	1.0431566	0.90014694	-0.10538338	1.0351723	0.91116726	0.267286	1.1155358	0.98753124	-0.046193352	1.1279123	0.99330253	0.19197576	0.95720044	1.0491131	0.074535721	1.1269227	1.440365	-0.097861943	1.1124618	1.4529049	0.23295354	1.0499583	1.4976748	0.064636013	0.99587442	1.091149	-0.13264439	0.97530702	1.1005205	0.31519026	1.1338731	0.86891707	-0.17158134	1.1955381	0.92861514	0.29871992
381	1.52	1.1014149	0.10872427	-0.0088995856	1.0765705	0.039561095	0.10085231	0.99310897	0.2140589	-0.038886633	0.93024994	0.064847559	0.13262786	1.0265757	0.21370843	0.053489039	0.94477778	0.10448044	0.042455698	0.91434804	0.21568002	0.0101554	0.86013384	0.05198757	0.081614482	1.2447876	0.53528409	-0.077380146	1.0596807	0.50296783	0.20239696	1.2596592	0.53103163	0.04785805	1.0445464	0.49589396	0.077412611	1.0490759	0.90053522	-0.10547827	1.0396535	0.91143754	0.26737309	1.1213119	0.98795152	-0.046016481	1.1331406	0.99356853	0.19219156	0.96262408	1.0492264	0.074312889	1.1315295	1.4406263	-0.097976456	1.1175462	1.453364	0.2327943	1.0547924	1.4979434	0.06466816	0.99990616	1.0917863	-0.13257926	0.98142165	1.1005053	0.31551198	1.1362606	0.86878999	-0.17224801	1.2028176	0.93027262	0.29823711
382	1.524	1.1199447	0.10598498	-0.0088059379	1.0766836	0.039640277	0.10087809	1.0086161	0.20791452	-0.038633742	0.93045091	0.065296375	0.13265143	1.0423391	0.2086391	0.05368762	0.94524306	0.10478058	0.042456987	0.92978378	0.20722049	0.010385326	0.86028596	0.05267453	0.081633971	1.2519526	0.53605083	-0.077380824	1.0612404	0.50299845	0.20263064	1.2667892	0.53209327	0.047698147	1.0461068	0.49608374	0.077560807	1.055132	0.90085282	-0.10542757	1.0442059	0.91167384	0.26743014	1.127201	0.98832129	-0.045874259	1.1383694	0.99379568	0.19241272	0.96768841	1.0493399	0.074169044	1.1361495	1.4408435	-0.09808969	1.1225382	1.4537489	0.23272277	1.0596308	1.4981894	0.064680361	1.0039829	1.0924107	-0.13245316	0.9875142	1.1004349	0.3157747	1.1386872	0.8686358	-0.17292316	1.2100197	0.93183467	0.29775116
